<svg xmlns="http://www.w3.org/2000/svg"  viewBox="0 0 50 50" width="50px" height="50px"><path d="M 4 5 A 1.0001 1.0001 0 0 0 3 6 L 3 44 A 1.0001 1.0001 0 0 0 4.9238281 44.380859 L 20.560547 6.3808594 A 1.0001 1.0001 0 0 0 19.636719 5 L 4 5 z M 30.363281 5 A 1.0001 1.0001 0 0 0 29.439453 6.3808594 L 45.076172 44.380859 A 1.0001 1.0001 0 0 0 47 44 L 47 6 A 1.0001 1.0001 0 0 0 46 5 L 30.363281 5 z M 5 7 L 18.142578 7 L 5 38.943359 L 5 7 z M 31.857422 7 L 45 7 L 45 38.943359 L 31.857422 7 z M 24.982422 18.111328 A 1.0001 1.0001 0 0 0 24.074219 18.732422 L 17.166016 35.621094 A 1.0001 1.0001 0 0 0 18.091797 37 L 24.328125 37 L 27.347656 44.378906 A 1.0001 1.0001 0 0 0 28.273438 45 L 35.181641 45 A 1.0001 1.0001 0 0 0 36.107422 43.621094 L 25.925781 18.732422 A 1.0001 1.0001 0 0 0 24.982422 18.111328 z M 25 21.753906 L 33.691406 43 L 28.945312 43 L 25.925781 35.621094 A 1.0001 1.0001 0 0 0 25 35 L 19.580078 35 L 25 21.753906 z"/></svg>